<?xml version="1.0" encoding="UTF-8"?>
<svg width="48px" height="48px" viewBox="0 0 48 48" version="1.1" xmlns="http://www.w3.org/2000/svg" xmlns:xlink="http://www.w3.org/1999/xlink">
    <!-- Generator: Sketch 53 (72520) - https://sketchapp.com -->
    <title>icon_company</title>
    <desc>Created with Sketch.</desc>
    <defs>
        <linearGradient x1="0%" y1="50%" x2="100%" y2="50%" id="linearGradient-1">
            <stop stop-color="#F5385A" offset="0%"></stop>
            <stop stop-color="#F55D38" offset="100%"></stop>
        </linearGradient>
    </defs>
    <g id="King-2" stroke="none" stroke-width="1" fill="none" fill-rule="evenodd">
        <g id="King-V2-Dashboard" transform="translate(-424.000000, -160.000000)">
            <g id="icon_company" transform="translate(424.000000, 160.000000)">
                <circle id="Oval" fill="url(#linearGradient-1)" cx="24" cy="24" r="24"></circle>
                <g id="tabicon_company" transform="translate(16.000000, 15.000000)" fill="#FFFFFF" fill-rule="nonzero">
                    <path d="M12.4328485,17.9982425 L11.30275,17.9982425 L5.65225792,17.9982425 L4.5221595,17.9982425 L0.00176577045,17.9982425 L0.00176577045,5.62390158 L4.52215948,5.62390158 L4.52215948,1.12478031 L7.91245476,1.12478031 L7.91245477,0 L9.04255319,0 L9.04255319,1.12653779 L12.4346143,1.12653779 L12.4346143,7.87521969 L16.9532422,7.87521969 L16.9532422,18 L12.4328485,18 L12.4328485,17.9982425 L12.4328485,17.9982425 Z M4.52215948,6.75043937 L1.13186421,6.75043937 L1.13186421,16.8717047 L2.26196263,16.8717047 L2.26196263,14.6221441 L3.39206104,14.6221441 L3.39206104,16.8699473 L4.52392525,16.8699473 L4.52215948,6.75043937 L4.52215948,6.75043937 L4.52215948,6.75043937 Z M11.30275,7.87346221 L11.30275,2.24956063 L5.65225792,2.24956063 L5.65225792,5.62390158 L5.65225792,16.8699473 L7.34563978,16.8699473 L7.34563978,14.6221441 L9.60583663,14.6221441 L9.60583663,16.8699473 L11.3009843,16.8699473 L11.3009843,7.87346221 L11.30275,7.87346221 L11.30275,7.87346221 Z M15.8231438,8.99824254 L12.4328485,8.99824254 L12.4328485,16.8717048 L13.5629469,16.8717048 L13.5629469,14.6221441 L14.6930453,14.6221441 L14.6930453,16.8699473 L15.8231437,16.8699473 L15.8231438,8.99824254 L15.8231438,8.99824254 L15.8231438,8.99824254 Z M13.5629469,12.3743409 L14.6930453,12.3743409 L14.6930453,13.4973638 L13.5629469,13.4973638 L13.5629469,12.3743409 L13.5629469,12.3743409 L13.5629469,12.3743409 Z M13.5629469,10.1247803 L14.6930453,10.1247803 L14.6930453,11.2495606 L13.5629469,11.2495606 L13.5629469,10.1247803 L13.5629469,10.1247803 L13.5629469,10.1247803 Z M7.34563978,12.3743409 L9.60583663,12.3743409 L9.60583663,13.4973638 L7.34563978,13.4973638 L7.34563978,12.3743409 L7.34563978,12.3743409 L7.34563978,12.3743409 Z M7.34563978,10.1247803 L9.60583663,10.1247803 L9.60583663,11.2495606 L7.34563978,11.2495606 L7.34563978,10.1247803 L7.34563978,10.1247803 L7.34563978,10.1247803 Z M7.34563978,7.87346221 L9.60583663,7.87346221 L9.60583663,8.99824252 L7.34563978,8.99824252 L7.34563978,7.87346221 L7.34563978,7.87346221 L7.34563978,7.87346221 Z M7.34563978,5.62390158 L9.60583663,5.62390158 L9.60583663,6.74868189 L7.34563978,6.74868189 L7.34563978,5.62390158 L7.34563978,5.62390158 L7.34563978,5.62390158 Z M7.34563978,3.37434094 L9.60583663,3.37434094 L9.60583663,4.49912125 L7.34563978,4.49912125 L7.34563978,3.37434094 L7.34563978,3.37434094 L7.34563978,3.37434094 Z M2.26019686,12.3743409 L3.39029527,12.3743409 L3.39029527,13.4973638 L2.26019686,13.4973638 L2.26019686,12.3743409 L2.26019686,12.3743409 L2.26019686,12.3743409 Z M2.26019686,10.1247803 L3.39029527,10.1247803 L3.39029527,11.2495606 L2.26019686,11.2495606 L2.26019686,10.1247803 L2.26019686,10.1247803 L2.26019686,10.1247803 Z M2.26019686,7.87346221 L3.39029527,7.87346221 L3.39029527,8.99824252 L2.26019686,8.99824252 L2.26019686,7.87346221 L2.26019686,7.87346221 L2.26019686,7.87346221 Z" id="Shape"></path>
                </g>
            </g>
        </g>
    </g>
</svg>