<?xml version="1.0" encoding="UTF-8"?>
<svg width="56px" height="59px" viewBox="0 0 56 59" version="1.1" xmlns="http://www.w3.org/2000/svg" xmlns:xlink="http://www.w3.org/1999/xlink">
    <!-- Generator: Sketch 53 (72520) - https://sketchapp.com -->
    <title>icon_company</title>
    <desc>Created with Sketch.</desc>
    <g id="King" stroke="none" stroke-width="1" fill="#ffffff" fill-rule="evenodd">
        <g id="King-Home" transform="translate(-704.000000, -190.000000)" fill="#ffffff" fill-rule="nonzero">
            <g id="icon_company" transform="translate(704.000000, 190.000000)">
                <path d="M40.9552655,58.9942394 L37.2325884,58.9942394 L18.6192026,58.9942394 L14.8965254,58.9942394 L0.00581665559,58.9942394 L0.00581665559,18.4338996 L14.8965253,18.4338996 L14.8965253,3.6867799 L26.0645568,3.6867799 L26.0645569,0 L29.787234,0 L29.787234,3.69254052 L40.9610822,3.69254052 L40.9610822,25.8132201 L55.8459742,25.8132201 L55.8459742,59 L40.9552655,59 L40.9552655,58.9942394 L40.9552655,58.9942394 Z M14.8965253,22.1264401 L3.72849386,22.1264401 L3.72849386,55.3016989 L7.451171,55.3016989 L7.451171,47.9281391 L11.1738481,47.9281391 L11.1738481,55.2959383 L14.902342,55.2959383 L14.8965253,22.1264401 L14.8965253,22.1264401 L14.8965253,22.1264401 Z M37.2325884,25.8074595 L37.2325884,7.37355986 L18.6192026,7.37355986 L18.6192026,18.4338996 L18.6192026,55.2959383 L24.1974016,55.2959383 L24.1974016,47.9281391 L31.642756,47.9281391 L31.642756,55.2959383 L37.2267717,55.2959383 L37.2267717,25.8074595 L37.2325884,25.8074595 L37.2325884,25.8074595 Z M52.1232971,29.4942394 L40.9552655,29.4942394 L40.9552655,55.3016989 L44.6779427,55.3016989 L44.6779427,47.9281391 L48.4006199,47.9281391 L48.4006199,55.2959383 L52.123297,55.2959383 L52.1232971,29.4942394 L52.1232971,29.4942394 L52.1232971,29.4942394 Z M44.6779427,40.5603398 L48.4006199,40.5603398 L48.4006199,44.2413591 L44.6779427,44.2413591 L44.6779427,40.5603398 L44.6779427,40.5603398 L44.6779427,40.5603398 Z M44.6779427,33.1867799 L48.4006199,33.1867799 L48.4006199,36.8735598 L44.6779427,36.8735598 L44.6779427,33.1867799 L44.6779427,33.1867799 L44.6779427,33.1867799 Z M24.1974016,40.5603398 L31.642756,40.5603398 L31.642756,44.2413591 L24.1974016,44.2413591 L24.1974016,40.5603398 L24.1974016,40.5603398 L24.1974016,40.5603398 Z M24.1974016,33.1867799 L31.642756,33.1867799 L31.642756,36.8735598 L24.1974016,36.8735598 L24.1974016,33.1867799 L24.1974016,33.1867799 L24.1974016,33.1867799 Z M24.1974016,25.8074595 L31.642756,25.8074595 L31.642756,29.4942394 L24.1974016,29.4942394 L24.1974016,25.8074595 L24.1974016,25.8074595 L24.1974016,25.8074595 Z M24.1974016,18.4338996 L31.642756,18.4338996 L31.642756,22.1206795 L24.1974016,22.1206795 L24.1974016,18.4338996 L24.1974016,18.4338996 L24.1974016,18.4338996 Z M24.1974016,11.0603398 L31.642756,11.0603398 L31.642756,14.7471197 L24.1974016,14.7471197 L24.1974016,11.0603398 L24.1974016,11.0603398 L24.1974016,11.0603398 Z M7.44535435,40.5603398 L11.1680315,40.5603398 L11.1680315,44.2413591 L7.44535435,44.2413591 L7.44535435,40.5603398 L7.44535435,40.5603398 L7.44535435,40.5603398 Z M7.44535435,33.1867799 L11.1680315,33.1867799 L11.1680315,36.8735598 L7.44535435,36.8735598 L7.44535435,33.1867799 L7.44535435,33.1867799 L7.44535435,33.1867799 Z M7.44535435,25.8074595 L11.1680315,25.8074595 L11.1680315,29.4942394 L7.44535435,29.4942394 L7.44535435,25.8074595 L7.44535435,25.8074595 L7.44535435,25.8074595 Z" id="Shape"></path>
            </g>
        </g>
    </g>
</svg>