<?xml version="1.0" encoding="UTF-8"?>
<svg width="59px" height="59px" viewBox="0 0 59 59" version="1.1" xmlns="http://www.w3.org/2000/svg" xmlns:xlink="http://www.w3.org/1999/xlink">
    <!-- Generator: Sketch 53 (72520) - https://sketchapp.com -->
    <title>icon_invoice</title>
    <desc>Created with Sketch.</desc>
    <g id="King" stroke="none" stroke-width="1" fill="#fff" fill-rule="evenodd">
        <g id="King-Home" transform="translate(-1301.000000, -190.000000)" fill="#fff" fill-rule="nonzero">
            <g id="icon_invoice" transform="translate(1301.000000, 190.000000)">
                <path d="M58.8731183,35.2492645 C58.8731183,27.4333505 55.6533677,17.2127742 46.6924731,13.5443699 L46.6924731,9.62829247 L49.3569892,7.49667957 C49.5976839,7.30394624 49.7377613,7.01224516 49.7376344,6.70392258 L49.7376344,1.01962151 C49.7376344,0.459058065 49.2831441,0.00456774194 48.7225806,0.00456774194 L45.6774194,0.00456774194 C45.4081763,0.00456774194 45.1500989,0.111655914 44.9597763,0.301978495 L43.6473118,1.61444301 L42.3348473,0.301978495 C42.1445247,0.111655914 41.8864473,0.00456774194 41.6172043,0.00456774194 L37.5569892,0.00456774194 C37.2877462,0.00456774194 37.0296688,0.111655914 36.8393462,0.301978495 L35.5268817,1.61444301 L34.2144172,0.301978495 C34.0240946,0.111655914 33.7660172,0.00456774194 33.4967742,0.00456774194 L30.4516129,0.00456774194 C29.8910495,0.00456774194 29.4365591,0.459058065 29.4365591,1.01962151 L29.4365591,6.70392258 C29.4364323,7.01224516 29.5765097,7.30394624 29.8172043,7.49667957 L32.4817204,9.62829247 L32.4817204,13.5443699 C23.5208258,17.2127742 20.3010753,27.4374108 20.3010753,35.2492645 C20.282043,37.082071 20.5667656,38.9054882 21.1435699,40.6452903 C20.7070968,40.620929 20.2675785,40.6067183 19.8290753,40.6067183 L17.255914,40.6067183 C17.255914,40.0461548 16.8014237,39.5916645 16.2408602,39.5916645 L8.12043011,39.5916645 C7.55986667,39.5916645 7.10537634,40.0461548 7.10537634,40.6067183 L0,40.6067183 L0,42.6368258 L7.10537634,42.6368258 L7.10537634,52.7873634 L0,52.7873634 L0,54.817471 L7.10537634,54.817471 C7.10537634,55.3780344 7.55986667,55.8325247 8.12043011,55.8325247 L16.2408602,55.8325247 C16.8014237,55.8325247 17.255914,55.3780344 17.255914,54.817471 L17.255914,54.4307355 L24.8343054,57.5774022 C28.9655742,59.2646753 33.5841957,59.3159355 37.7518796,57.7205247 L53.4324301,51.740843 C54.3613312,51.3878581 55.1089183,50.6754172 55.5061849,49.7645333 C56.1159785,48.4039806 55.8572667,46.8111075 54.8484301,45.7134538 C57.5807011,42.9329677 59.0379376,39.1441527 58.8731183,35.2492645 Z M15.2258065,53.8024172 L9.13548387,53.8024172 L9.13548387,41.621772 L15.2258065,41.621772 L15.2258065,53.8024172 Z M31.4666667,6.21669677 L31.4666667,2.03467527 L33.0765419,2.03467527 L34.8092387,3.76737204 C35.2056172,4.16362366 35.8481462,4.16362366 36.2445247,3.76737204 L37.9772215,2.03467527 L41.196972,2.03467527 L42.9296688,3.76737204 C43.3260473,4.16362366 43.9685763,4.16362366 44.3649548,3.76737204 L46.0976516,2.03467527 L47.7075269,2.03467527 L47.7075269,6.21669677 L45.3211355,8.12499785 L33.851028,8.12499785 L31.4666667,6.21669677 Z M44.6623656,10.1551054 L44.6623656,13.2002667 L34.511828,13.2002667 L34.511828,10.1551054 L44.6623656,10.1551054 Z M53.6445763,48.9464 C53.4652925,49.3607957 53.1263914,49.685486 52.7046366,49.8467527 L37.024086,55.8254194 C33.3395677,57.2368516 29.2560065,57.1929505 25.6027011,55.7025978 L17.255914,52.232129 L17.255914,42.6368258 L19.8290753,42.6368258 C23.1947398,42.6407591 26.5137118,43.4242538 29.5258839,44.925772 C30.5205097,45.4222602 31.6167677,45.6810989 32.7283785,45.6819871 L40.6021505,45.6819871 C41.4429957,45.687443 42.1202903,46.3734925 42.1148344,47.2143376 C42.1102667,47.9186581 41.6231677,48.528071 40.9371183,48.6875613 C40.8041462,48.6997419 40.6742194,48.7271484 40.5392172,48.7271484 L28.4215054,48.7271484 L28.4215054,50.7572559 L40.5392172,50.7572559 C40.5605333,50.7572559 40.5808344,50.7572559 40.6021505,50.7572559 C40.6224516,50.7572559 40.6417376,50.7511656 40.6630538,50.7511656 C41.4686258,50.7382237 42.2641742,50.5695978 43.0057978,50.2548043 L51.4926624,46.6523785 C51.8969075,46.4798194 52.3541892,46.4798194 52.7584344,46.6523785 C53.1789204,46.829886 53.5088129,47.171071 53.6719828,47.5973935 C53.8444151,48.0325978 53.8345183,48.5186817 53.6445763,48.9464 Z M53.0396043,44.622271 C52.2630882,44.4141849 51.4394989,44.4709011 50.6988903,44.7836645 L44.1172817,47.5781075 C44.1364409,47.4543978 44.1490022,47.3296731 44.1548387,47.2045677 C44.1548387,45.2424688 42.5642495,43.6518796 40.6021505,43.6518796 L32.7283785,43.6518796 C31.9318151,43.6507376 31.1462903,43.4651097 30.4333419,43.1098409 C28.2302946,42.014471 25.8706753,41.2672645 23.4386065,40.8949935 C22.6799806,39.1109097 22.3027613,37.1877634 22.3311828,35.2492645 C22.3311828,27.9408774 25.3164559,18.3476043 33.6997849,15.2303742 L45.4744086,15.2303742 C53.8577376,18.3476043 56.8430108,27.9408774 56.8430108,35.2492645 C57.0135398,38.7806366 55.6226624,42.2083462 53.0396043,44.622271 Z" id="Shape"></path>
                <rect id="Rectangle-path" x="11.1655914" y="49.7422022" width="2.03010753" height="2.03010753"></rect>
                <path d="M41.743071,29.0899183 L38.0736516,27.8667785 C37.6779075,27.7369785 37.4622086,27.3109097 37.5920086,26.9151656 C37.6938946,26.6045591 37.9842,26.3949505 38.3111742,26.3959656 L40.8630194,26.3959656 C41.2796989,26.3964731 41.6172043,26.734486 41.6172043,27.1511656 L41.6172043,27.8170409 L43.6473118,27.8170409 L43.6473118,27.1511656 C43.6461699,25.6137398 42.4004452,24.3675075 40.8630194,24.3658581 L40.6021505,24.3658581 L40.6021505,22.3357505 L38.572043,22.3357505 L38.572043,24.3658581 L38.3111742,24.3658581 C36.7734946,24.364843 35.5259935,25.6105677 35.5249785,27.1482473 C35.5242172,28.3482946 36.2923591,29.4138473 37.4311226,29.7923355 L41.1005419,31.0154753 C41.496286,31.1452753 41.7119849,31.5713441 41.5821849,31.9670882 C41.4802989,32.2776946 41.1899935,32.4873032 40.8630194,32.4862882 L38.3111742,32.4862882 C37.8944946,32.4857806 37.5569892,32.1477677 37.5569892,31.7310882 L37.5569892,31.0652129 L35.5268817,31.0652129 L35.5268817,31.7310882 C35.5280237,33.268514 36.7737484,34.5147462 38.3111742,34.5163957 L38.572043,34.5163957 L38.572043,36.5465032 L40.6021505,36.5465032 L40.6021505,34.5163957 L40.8630194,34.5163957 C42.4006989,34.5174108 43.6482,33.271686 43.6492151,31.7340065 C43.6501032,30.5339591 42.8818344,29.4684065 41.743071,29.0899183 Z" id="Shape"></path>
                <path d="M39.5870968,18.2755355 C33.4205183,18.2755355 28.4215054,23.2745484 28.4215054,29.4411269 C28.4287376,35.6046602 33.4235634,40.599486 39.5870968,40.6067183 C45.7536753,40.6067183 50.7526882,35.6077054 50.7526882,29.4411269 C50.7526882,23.2745484 45.7536753,18.2755355 39.5870968,18.2755355 Z M39.5870968,38.5766108 C34.541772,38.5766108 30.4516129,34.4864516 30.4516129,29.4411269 C30.4571957,24.398086 34.5440559,20.3112258 39.5870968,20.305643 C44.6325484,20.305643 48.7225806,24.3956753 48.7225806,29.4411269 C48.7225806,34.4865785 44.6325484,38.5766108 39.5870968,38.5766108 Z" id="Shape"></path>
            </g>
        </g>
    </g>
</svg>