<?xml version="1.0" encoding="UTF-8"?>
<svg width="18px" height="18px" viewBox="0 0 18 18" version="1.1" xmlns="http://www.w3.org/2000/svg" xmlns:xlink="http://www.w3.org/1999/xlink">
    <!-- Generator: Sketch 53 (72520) - https://sketchapp.com -->
    <title>navicon_settings</title>
    <desc>Created with Sketch.</desc>
    <g id="Symbols" stroke="none" stroke-width="1" fill="none" fill-rule="evenodd">
        <g id="Nav-dashboard" transform="translate(-30.000000, -294.000000)" fill="#FB6240" fill-rule="nonzero">
            <g id="navicon_settings" transform="translate(30.000000, 294.000000)">
                <path d="M17.9277323,7.99367286 C17.8992937,7.74086989 17.6045353,7.55089963 17.349658,7.55089963 C16.5256059,7.55089963 15.7943643,7.06704089 15.4876952,6.31873606 C15.1744015,5.5522974 15.3764164,4.65845353 15.9905576,4.09510037 C16.1838736,3.91837918 16.2073606,3.62255019 16.0452268,3.41705576 C15.6234647,2.88147212 15.1440892,2.3976803 14.620684,1.97839405 C14.4157249,1.81391822 14.1150112,1.83680297 13.9372862,2.03359851 C13.4013011,2.62719703 12.4385353,2.84781413 11.6945799,2.53739777 C10.9203792,2.21172491 10.432171,1.42721933 10.479948,0.585100372 C10.4956729,0.320587361 10.3023569,0.0906022305 10.0386468,0.0598884758 C9.36695911,-0.0177992565 8.6893829,-0.0202081784 8.01568773,0.054535316 C7.75498885,0.0833085502 7.56167286,0.307873606 7.57043866,0.569040892 C7.59974721,1.40286245 7.10565056,2.17365056 6.33914498,2.48761338 C5.60408922,2.78785874 4.64808178,2.56911524 4.11316729,1.98080297 C3.93637918,1.78701859 3.64055019,1.76319703 3.43458736,1.92372491 C2.89565799,2.34655762 2.40550929,2.83075093 1.97986617,3.36191822 C1.8138513,3.56841636 1.83827509,3.86772491 2.0335316,4.0453829 C2.6593829,4.6121487 2.86146468,5.51375465 2.53632714,6.28902602 C2.22591078,7.02816357 1.45840149,7.50452788 0.579747212,7.50452788 C0.294624535,7.49536059 0.0915390335,7.68673606 0.0603568773,7.94596283 C-0.0187360595,8.6215316 -0.0196728625,9.30988104 0.0564758364,9.9909368 C0.0847137546,10.2448104 0.388438662,10.4331078 0.646126394,10.4331078 C1.42915985,10.4131004 2.18094424,10.8978959 2.49631227,11.6653383 C2.81067658,12.431777 2.6085948,13.3250855 1.99351673,13.8889071 C1.80113755,14.0656283 1.77671375,14.3609888 1.93884758,14.5664833 C2.35666171,15.0986543 2.83610409,15.5829145 3.3613829,16.0056803 C3.56741264,16.1716952 3.86718959,16.1482751 4.04578439,15.9514796 C4.58377695,15.3564089 5.54647584,15.1361933 6.28748699,15.4472119 C7.06362825,15.771881 7.55183643,16.5563197 7.50405948,17.3989071 C7.4884684,17.6635539 7.68272119,17.8939405 7.94536059,17.9241859 C8.28896654,17.9642677 8.63464684,17.9842751 8.98126394,17.9842751 C9.31028253,17.9842751 9.63936803,17.9662082 9.96838662,17.9296059 C10.2291524,17.9008327 10.4223346,17.6762677 10.4135688,17.414632 C10.3833903,16.5812788 10.8783569,15.8104907 11.6438587,15.4970632 C12.3838662,15.1948104 13.3358587,15.4160297 13.8708401,16.0037398 C14.048632,16.1971227 14.3423866,16.2204758 14.549487,16.0604833 C15.0874126,15.6386543 15.5765576,15.1548625 16.0042082,14.622223 C16.1701561,14.4161933 16.1467361,14.1164164 15.9504758,13.9388253 C15.3246245,13.3720595 15.121539,12.4703197 15.4466766,11.6955836 C15.752342,10.9662825 16.4913457,10.4766022 17.286223,10.4766022 L17.3974349,10.4794796 C17.6552565,10.5004238 17.8924684,10.3018216 17.9237175,10.0386468 C18.0029442,9.36247584 18.003881,8.67472862 17.9277323,7.99367286 Z M9.00635688,12.0105502 C7.35236431,12.0105502 6.00698141,10.6651673 6.00698141,9.01117472 C6.00698141,7.35724907 7.35236431,6.01179926 9.00635688,6.01179926 C10.6602825,6.01179926 12.0056654,7.35724907 12.0056654,9.01117472 C12.0056654,10.6651673 10.6602825,12.0105502 9.00635688,12.0105502 Z" id="Shape"></path>
            </g>
        </g>
    </g>
</svg>