<?xml version="1.0" encoding="UTF-8"?>
<svg width="19px" height="20px" viewBox="0 0 19 20" version="1.1" xmlns="http://www.w3.org/2000/svg" xmlns:xlink="http://www.w3.org/1999/xlink">
    <!-- Generator: Sketch 53 (72520) - https://sketchapp.com -->
    <title>tabicon_company</title>
    <desc>Created with Sketch.</desc>
    <g id="King" stroke="none" stroke-width="1" fill="none" fill-rule="evenodd">
        <g id="King-Home" transform="translate(-41.000000, -179.000000)" fill="#12ccef" fill-rule="nonzero">
            <g id="tabicon_company" transform="translate(41.000000, 179.000000)">
                <path d="M13.8955365,19.9980473 L12.6324853,19.9980473 L6.31722944,19.9980473 L5.05417826,19.9980473 L0.00197350814,19.9980473 L0.00197350814,6.24877953 L5.05417824,6.24877953 L5.05417824,1.2497559 L8.84333179,1.2497559 L8.8433318,0 L10.106383,0 L10.106383,1.25170865 L13.89751,1.25170865 L13.89751,8.7502441 L18.9477413,8.7502441 L18.9477413,20 L13.8955365,20 L13.8955365,19.9980473 L13.8955365,19.9980473 Z M5.05417824,7.50048818 L1.2650247,7.50048818 L1.2650247,18.7463386 L2.52807588,18.7463386 L2.52807588,16.2468268 L3.79112705,16.2468268 L3.79112705,18.7443859 L5.05615175,18.7443859 L5.05417824,7.50048818 L5.05417824,7.50048818 L5.05417824,7.50048818 Z M12.6324853,8.74829135 L12.6324853,2.49951182 L6.31722944,2.49951182 L6.31722944,6.24877953 L6.31722944,18.7443859 L8.20983269,18.7443859 L8.20983269,16.2468268 L10.7359351,16.2468268 L10.7359351,18.7443859 L12.6305118,18.7443859 L12.6305118,8.74829135 L12.6324853,8.74829135 L12.6324853,8.74829135 Z M17.6846901,9.99804727 L13.8955365,9.99804727 L13.8955365,18.7463386 L15.1585877,18.7463386 L15.1585877,16.2468268 L16.4216389,16.2468268 L16.4216389,18.7443859 L17.6846901,18.7443859 L17.6846901,9.99804727 L17.6846901,9.99804727 L17.6846901,9.99804727 Z M15.1585877,13.7492677 L16.4216389,13.7492677 L16.4216389,14.9970709 L15.1585877,14.9970709 L15.1585877,13.7492677 L15.1585877,13.7492677 L15.1585877,13.7492677 Z M15.1585877,11.2497559 L16.4216389,11.2497559 L16.4216389,12.4995118 L15.1585877,12.4995118 L15.1585877,11.2497559 L15.1585877,11.2497559 L15.1585877,11.2497559 Z M8.20983269,13.7492677 L10.7359351,13.7492677 L10.7359351,14.9970709 L8.20983269,14.9970709 L8.20983269,13.7492677 L8.20983269,13.7492677 L8.20983269,13.7492677 Z M8.20983269,11.2497559 L10.7359351,11.2497559 L10.7359351,12.4995118 L8.20983269,12.4995118 L8.20983269,11.2497559 L8.20983269,11.2497559 L8.20983269,11.2497559 Z M8.20983269,8.74829135 L10.7359351,8.74829135 L10.7359351,9.99804725 L8.20983269,9.99804725 L8.20983269,8.74829135 L8.20983269,8.74829135 L8.20983269,8.74829135 Z M8.20983269,6.24877953 L10.7359351,6.24877953 L10.7359351,7.49853543 L8.20983269,7.49853543 L8.20983269,6.24877953 L8.20983269,6.24877953 L8.20983269,6.24877953 Z M8.20983269,3.74926771 L10.7359351,3.74926771 L10.7359351,4.99902361 L8.20983269,4.99902361 L8.20983269,3.74926771 L8.20983269,3.74926771 L8.20983269,3.74926771 Z M2.52610237,13.7492677 L3.78915354,13.7492677 L3.78915354,14.9970709 L2.52610237,14.9970709 L2.52610237,13.7492677 L2.52610237,13.7492677 L2.52610237,13.7492677 Z M2.52610237,11.2497559 L3.78915354,11.2497559 L3.78915354,12.4995118 L2.52610237,12.4995118 L2.52610237,11.2497559 L2.52610237,11.2497559 L2.52610237,11.2497559 Z M2.52610237,8.74829135 L3.78915354,8.74829135 L3.78915354,9.99804725 L2.52610237,9.99804725 L2.52610237,8.74829135 L2.52610237,8.74829135 L2.52610237,8.74829135 Z" id="Shape"></path>
            </g>
        </g>
    </g>
</svg>